PathFileType	4	(X/Y/Z)	C:/Users/opensim2020/Desktop/walking_exp_matlab/subject03_walking04_straight_02.trc	
DataRate	CameraRate	NumFrames	NumMarkers	Units	OrigDataRate	OrigDataStartFrame	OrigNumFrames	
100.00	100.00	4	51	mm	100.00	1734	259	
Frame#	Time	LFHD			RFHD			LBHD			RBHD			C7			T10			CLAV			STRN			RBAK			LSHO			LUPA			LELB			LFRM			LWRA			LWRB			LFIN			RSHO			RUPA			RELB			RFRM			RWRA			RWRB			RFIN			LASI			RASI			LPSI			RPSI			LTHI			LKNE			LTIB			LANK			LHEE			LTOE			RTHI			RKNE			RTIB			RANK			RHEE			RTOE			*39			*40			*41			*42			*43			*44			*45			*46			*47			*48			*49			*50			
		X1	Y1	Z1	X2	Y2	Z2	X3	Y3	Z3	X4	Y4	Z4	X5	Y5	Z5	X6	Y6	Z6	X7	Y7	Z7	X8	Y8	Z8	X9	Y9	Z9	X10	Y10	Z10	X11	Y11	Z11	X12	Y12	Z12	X13	Y13	Z13	X14	Y14	Z14	X15	Y15	Z15	X16	Y16	Z16	X17	Y17	Z17	X18	Y18	Z18	X19	Y19	Z19	X20	Y20	Z20	X21	Y21	Z21	X22	Y22	Z22	X23	Y23	Z23	X24	Y24	Z24	X25	Y25	Z25	X26	Y26	Z26	X27	Y27	Z27	X28	Y28	Z28	X29	Y29	Z29	X30	Y30	Z30	X31	Y31	Z31	X32	Y32	Z32	X33	Y33	Z33	X34	Y34	Z34	X35	Y35	Z35	X36	Y36	Z36	X37	Y37	Z37	X38	Y38	Z38	X39	Y39	Z39	X40	Y40	Z40	X41	Y41	Z41	X42	Y42	Z42	X43	Y43	Z43	X44	Y44	Z44	X45	Y45	Z45	X46	Y46	Z46	X47	Y47	Z47	X48	Y48	Z48	X49	Y49	Z49	X50	Y50	Z50	X51	Y51	Z51	

195	1.940	1645.31360	-508.19147	1613.01477	1515.54907	-476.34766	1617.94482	1672.14087	-377.84174	1587.70447	1543.94812	-351.16211	1591.85852	1612.34583	-317.69617	1422.99329	1609.26306	-285.24100	1105.87256	1602.58411	-437.55087	1345.38867	1602.71277	-483.00809	1181.53503	1511.76782	-261.21472	1245.78796	1761.38281	-401.79520	1379.66699	1829.02087	-388.19128	1179.89160	1835.90540	-386.37738	1055.59021	1830.12280	-400.66162	925.89404	1795.75012	-399.28812	806.39954	1850.91345	-387.95105	813.46356	1836.07446	-378.08386	727.58948	1447.12451	-385.82977	1372.53455	1373.60999	-407.88736	1151.94214	1363.19080	-438.88062	1043.10742	1368.27856	-484.95581	914.60559	1411.16711	-535.23010	831.86096	1366.67297	-507.74490	816.44043	1383.08777	-546.11676	753.72162	1715.88708	-462.21732	948.02899	1478.13733	-444.01373	936.97260	1678.12866	-297.20709	970.61517	1528.72363	-287.99472	969.53949	1760.35669	-427.80249	647.25342	1715.22693	-459.37311	472.66095	1713.57129	-432.48245	279.42102	1671.36487	-435.13162	71.67684	1633.56091	-397.84714	37.09501	1654.46228	-590.17657	37.14111	1438.90918	-392.08118	636.19135	1461.93091	-414.80768	457.02026	1461.38916	-265.08353	338.57684	1508.43323	-95.28091	209.42091	1565.31067	-52.92757	232.01569	1526.82117	-119.70170	68.48277																																				 
196	1.950	1645.39490	-517.63843	1613.63501	1515.61877	-485.89746	1618.58655	1672.23511	-386.99646	1588.62537	1543.94409	-360.67413	1592.80981	1612.43127	-326.78537	1423.83508	1610.24219	-294.40527	1106.76611	1602.65417	-446.60104	1346.20264	1602.93518	-492.24521	1182.38220	1512.70398	-270.14856	1246.10437	1761.49878	-410.86444	1380.28162	1829.78894	-399.74103	1180.62451	1837.41663	-400.10703	1056.45068	1831.70508	-417.03622	927.06049	1797.44250	-418.46100	807.75061	1852.45959	-406.69656	814.38226	1837.69153	-400.20993	728.40668	1447.01440	-394.83322	1372.75110	1374.44177	-416.21094	1151.69873	1364.10498	-446.29446	1042.46094	1369.19067	-490.61386	913.36761	1412.30505	-539.28235	829.62323	1367.46765	-512.19128	814.91840	1384.06836	-549.50732	751.52130	1716.76965	-471.63837	948.63324	1478.64575	-453.50912	937.87988	1678.81372	-306.46170	971.25531	1529.47620	-297.51727	969.71185	1760.73877	-435.99139	647.86609	1715.72046	-464.17154	472.70547	1713.69995	-435.15039	279.59146	1670.99719	-435.46484	71.53746	1633.48218	-397.90878	37.20622	1654.36108	-590.28961	37.05614	1439.80884	-407.13303	637.23535	1462.62695	-434.71912	458.96515	1462.52966	-284.88013	341.85547	1509.11401	-114.59660	213.46265	1566.00940	-71.22918	233.21252	1523.98816	-143.39561	72.34338																																				 
197	1.960	1645.44470	-526.95636	1614.17004	1515.59717	-495.37000	1619.05176	1672.06189	-396.40955	1589.47803	1543.81470	-369.96600	1593.66589	1612.35632	-335.80673	1424.54858	1610.61304	-303.81091	1107.07886	1602.69214	-455.54666	1346.99658	1603.26563	-501.38162	1183.22852	1513.74121	-278.84106	1246.38672	1761.58630	-419.84927	1380.95386	1830.47290	-411.26559	1181.44141	1838.72400	-413.93112	1057.38379	1833.33215	-433.53589	928.44330	1799.02661	-437.68445	809.26312	1853.91589	-425.56128	815.50159	1839.25781	-422.91684	729.62958	1446.77649	-403.76273	1372.80750	1375.27747	-424.40295	1151.45618	1365.20935	-453.67664	1041.87622	1370.00061	-496.31891	912.13354	1412.62036	-544.45563	827.94739	1368.09692	-516.45056	813.43066	1384.65894	-552.97870	749.39911	1717.86304	-480.82495	949.44464	1479.38513	-463.81293	939.02283	1679.41052	-315.63196	971.86475	1530.18225	-307.06189	970.08881	1760.77539	-443.81088	648.08435	1715.84033	-469.03973	472.65347	1713.69263	-438.00226	279.78128	1670.08557	-436.51425	70.95284	1633.10645	-398.16287	37.32265	1654.23584	-590.39935	36.95000	1440.31104	-422.28885	638.35138	1463.37268	-454.48645	461.17267	1463.64526	-304.81775	344.78580	1509.49170	-134.98088	215.67555	1566.28259	-90.26271	233.23402	1521.84583	-168.37883	75.44028																																				 
198	1.970	1645.40076	-536.18756	1614.58167	1515.50281	-504.79236	1619.41589	1672.01135	-405.38788	1590.24976	1543.61865	-379.37567	1594.25037	1612.32202	-344.67511	1425.14514	1611.18896	-312.88187	1107.66919	1602.76233	-464.46698	1347.65930	1603.52161	-510.40851	1184.02502	1514.53882	-287.88547	1246.31812	1761.60828	-428.62427	1381.60938	1831.02673	-422.77341	1182.29443	1839.88708	-427.74384	1058.48572	1834.53577	-449.91315	929.86816	1800.55115	-457.04529	811.17505	1855.29150	-444.57874	816.90063	1840.89050	-446.11322	731.30444	1446.67517	-412.38428	1372.90918	1376.08252	-432.33160	1151.15198	1366.11169	-460.75574	1041.29736	1370.81189	-501.66296	910.96869	1413.46497	-548.17206	825.83160	1368.61047	-520.55029	811.99280	1384.97449	-556.27899	747.50916	1719.03918	-489.76797	950.23608	1480.67053	-472.70370	939.82062	1679.77869	-324.78232	972.45630	1530.61267	-316.58600	970.52380	1760.86060	-451.91141	648.26929	1715.76111	-474.38321	472.58102	1713.52417	-440.91281	279.90259	1669.67969	-436.68802	71.17088	1633.14099	-398.06400	37.62723	1654.05042	-590.55389	36.85160	1441.41650	-437.72681	639.44971	1464.24878	-474.00833	463.52161	1464.87061	-325.07504	347.02133	1509.73657	-156.05702	216.56285	1566.20471	-110.09444	232.09216	1520.32141	-193.97505	77.42389																																				 
